<?xml version="1.0" encoding="utf-8"?>
<!-- Generator: Adobe Illustrator 16.0.0, SVG Export Plug-In . SVG Version: 6.00 Build 0)  -->
<!DOCTYPE svg PUBLIC "-//W3C//DTD SVG 1.1//EN" "http://www.w3.org/Graphics/SVG/1.1/DTD/svg11.dtd">
<svg version="1.1" id="レイヤー_1" xmlns="http://www.w3.org/2000/svg" xmlns:xlink="http://www.w3.org/1999/xlink" x="0px"
	 y="0px" width="595.28px" height="368.981px" viewBox="0 0 595.28 368.981" enable-background="new 0 0 595.28 368.981"
	 xml:space="preserve">
<g>
	<g>
		<path d="M247.169,323.552h3.389v17.801c0,1.604-0.295,2.984-0.904,4.123c-0.625,1.156-1.46,2.012-2.497,2.571
			c-1.013,0.552-2.125,0.826-3.325,0.826c-1.157,0-2.271-0.266-3.347-0.796c-1.078-0.531-1.946-1.31-2.619-2.304
			c-0.672-1.012-1.015-2.18-1.015-3.477v-0.496h3.256l0.059,0.439c0.045,0.499,0.184,0.971,0.405,1.39
			c0.22,0.419,0.497,0.778,0.839,1.076c0.354,0.292,0.736,0.516,1.124,0.657c0.395,0.156,0.811,0.236,1.246,0.257
			c0.568-0.021,1.13-0.171,1.668-0.463c0.51-0.292,0.934-0.708,1.246-1.277c0.318-0.569,0.475-1.291,0.475-2.149V323.552z"/>
		<path d="M277.337,323.552h-3.308l-10.698,24.932h3.654l3.471-8.024h10.403l3.517,8.024h3.666L277.337,323.552z M271.776,337.266
			l3.905-9.146l3.869,9.146H271.776z"/>
		<path d="M317.648,330.801c-0.109-1.796-0.625-3.256-1.516-4.347c-0.894-1.085-2.073-1.855-3.557-2.283
			c-1.41-0.412-3.094-0.619-5.005-0.619h-6.757v24.932h3.383v-9.655h4.722c1.64,0,3.141-0.298,4.462-0.908
			c1.348-0.619,2.409-1.498,3.149-2.619c0.773-1.123,1.153-2.418,1.153-3.839C317.684,331.161,317.672,330.919,317.648,330.801z
			 M313.941,332.813c-0.2,0.584-0.52,1.097-0.949,1.519c-0.439,0.416-1.021,0.752-1.714,0.991c-0.72,0.227-1.599,0.356-2.631,0.356
			h-4.45v-8.972h3.669c1.981,0,3.568,0.337,4.698,0.991c1.076,0.604,1.628,1.646,1.701,3.132
			C314.266,331.55,314.15,332.217,313.941,332.813z"/>
		<path d="M339.527,323.552h-3.312l-10.693,24.932h3.648l3.459-8.024h10.41l3.521,8.024h3.666L339.527,323.552z M333.963,337.266
			l3.904-9.146l3.875,9.146H333.963z"/>
		<polygon points="379.609,323.552 379.609,342.252 366.999,323.552 363,323.552 363,348.483 366.383,348.483 366.383,328.598 
			379.694,348.257 379.845,348.483 383.01,348.483 383.01,323.552 		"/>
		<rect x="131.58" y="232.109" width="6.911" height="71.854"/>
		<polygon points="384.626,232.109 384.626,238.47 384.626,270.893 384.626,277.251 384.626,303.964 391.518,303.964 
			391.518,277.251 411.253,277.251 411.253,270.893 391.518,270.893 391.518,238.47 417.686,238.47 417.686,232.109 
			391.518,232.109 		"/>
		<polygon points="463.656,232.109 463.656,238.47 463.656,270.893 463.656,277.251 463.656,303.964 470.548,303.964 
			470.548,277.251 490.28,277.251 490.28,270.893 470.548,270.893 470.548,238.47 496.716,238.47 496.716,232.109 470.548,232.109 
					"/>
		<polygon points="579.562,238.47 579.562,232.109 553.392,232.109 546.508,232.109 546.508,238.47 546.508,270.893 
			546.508,277.251 546.508,297.617 546.508,303.964 546.508,303.979 579.562,303.979 579.562,297.617 553.392,297.617 
			553.392,277.251 573.133,277.251 573.133,270.893 553.392,270.893 553.392,238.47 		"/>
		<path d="M58.719,270.155v6.783h19.104c-3.905,12.263-15.489,20.788-28.366,20.788c-16.458,0-29.81-13.38-29.81-29.81
			c0-16.436,13.352-29.807,29.81-29.807c12.437,0,23.674,7.874,27.955,19.582l0.093,0.248h6.737l-0.144-0.496
			c-4.646-15.388-18.572-25.722-34.641-25.722c-19.962,0-36.199,16.237-36.199,36.194s16.236,36.188,36.199,36.188
			c18.837,0,34.686-14.728,36.042-33.525l0.04-0.425H58.719z"/>
		<polygon points="310.449,239.773 310.461,239.762 310.438,239.75 306.772,230.254 303.074,239.75 303.063,239.762 
			303.074,239.773 276.643,303.964 284.028,303.964 306.772,249.394 329.495,303.964 336.883,303.964 		"/>
		<path d="M187.243,303.964v-71.819h19.302c5.915,0,10.82,0.705,14.725,2.111c3.898,1.406,6.87,3.209,8.915,5.405
			c2.04,2.2,3.452,4.507,4.239,6.925c0.795,2.418,1.315,5.066,1.57,7.945c0,4.005-0.91,7.747-2.722,11.218
			c-1.826,3.469-4.357,6.226-7.606,8.278c-3.256,2.05-6.905,3.076-10.942,3.076l20.273,26.86h-9.002l-24.445-32.594h6.019
			c4.229,0,7.965-0.631,11.204-1.89c3.238-1.263,5.711-3.088,7.438-5.488c1.721-2.396,2.583-5.297,2.583-8.703
			c0-3.472-0.95-6.45-2.844-8.941c-1.899-2.492-4.379-4.368-7.443-5.63c-3.059-1.263-6.263-1.894-9.616-1.894h-14.448v65.14H187.243
			z"/>
		<rect x="401.158" y="333.125" width="178.403" height="4.379"/>
		<rect x="13.259" y="333.125" width="203.382" height="4.379"/>
	</g>
	<g>
		<g>
			<path d="M200.393,65.923l30.939,17.913l-30.939,17.916V65.923z M200.393,106.093l30.939,17.916l-30.939,17.91V106.093z
				 M232.601,81.666l-30.939-17.913l30.939-17.73V81.666z M201.661,103.92l30.939-17.913l-0.058,35.829L201.661,103.92z
				 M232.601,126.177l-0.058,35.826l-30.882-17.91L232.601,126.177z M235.132,162.002l-0.065-35.826l31.004,17.916L235.132,162.002z
				 M266.071,63.753l-30.939,17.913V46.023L266.071,63.753z M236.4,43.669l30.939-17.733v35.646L236.4,43.669z M267.339,146.26
				l-0.115,35.826l-30.824-17.91L267.339,146.26z M269.871,61.583l-0.122-35.646l31.071,17.733L269.871,61.583z M269.871,182.086
				l-0.122-35.826l31.071,17.916L269.871,182.086z M269.871,141.919v-35.826l31.124,17.916L269.871,141.919z M302.08,126.177v35.826
				l-31.121-17.91L302.08,126.177z M271.127,103.92l30.953-17.913v35.829L271.127,103.92z"/>
		</g>
		<g>
			<path d="M413.132,101.752l-30.939-17.916l30.939-17.913V101.752z M413.132,141.919l-30.939-17.91l30.939-17.916V141.919z
				 M380.925,46.023l30.938,17.73l-30.938,17.913V46.023z M380.98,121.836l-0.056-35.829l30.938,17.913L380.98,121.836z
				 M411.863,144.093l-30.883,17.91l-0.056-35.826L411.863,144.093z M347.452,144.093l31.004-17.916l-0.064,35.826L347.452,144.093z
				 M378.392,46.023v35.643l-30.939-17.913L378.392,46.023z M346.184,61.583V25.937l30.939,17.733L346.184,61.583z M377.123,164.176
				l-30.824,17.91l-0.115-35.826L377.123,164.176z M312.703,43.669l31.071-17.733l-0.121,35.646L312.703,43.669z M312.703,164.176
				l31.071-17.916l-0.121,35.826L312.703,164.176z M312.528,124.009l31.125-17.916v35.826L312.528,124.009z M342.565,144.093
				l-31.119,17.91v-35.826L342.565,144.093z M311.446,121.836V86.007l30.945,17.913L311.446,121.836z"/>
		</g>
	</g>
</g>
<g>
	<g>
		<path d="M-481.473,563.921h0.769v4.032c0,0.36-0.067,0.676-0.205,0.933c-0.144,0.261-0.33,0.456-0.566,0.583
			c-0.228,0.123-0.481,0.186-0.752,0.186c-0.265,0-0.516-0.059-0.76-0.178c-0.242-0.123-0.441-0.3-0.592-0.523
			c-0.152-0.229-0.23-0.493-0.23-0.789v-0.111h0.738l0.014,0.101c0.012,0.112,0.042,0.218,0.092,0.314
			c0.048,0.096,0.111,0.176,0.19,0.243c0.078,0.067,0.167,0.117,0.253,0.147c0.09,0.037,0.184,0.056,0.284,0.06
			c0.126-0.004,0.255-0.038,0.375-0.105c0.117-0.065,0.211-0.161,0.284-0.287c0.071-0.131,0.105-0.292,0.105-0.487V563.921z"/>
		<path d="M-474.639,563.921h-0.75l-2.423,5.646h0.827l0.786-1.816h2.355l0.796,1.816h0.831L-474.639,563.921z M-475.899,567.025
			l0.884-2.07l0.876,2.07H-475.899z"/>
		<path d="M-465.512,565.563c-0.025-0.407-0.141-0.738-0.344-0.986c-0.203-0.245-0.47-0.418-0.806-0.516
			c-0.318-0.094-0.7-0.141-1.132-0.141h-1.53v5.646h0.766v-2.185h1.068c0.372,0,0.713-0.069,1.011-0.207
			c0.307-0.141,0.547-0.34,0.716-0.593c0.172-0.255,0.259-0.549,0.259-0.869C-465.504,565.644-465.506,565.59-465.512,565.563z
			 M-466.351,566.02c-0.048,0.131-0.118,0.246-0.217,0.342c-0.098,0.094-0.229,0.171-0.387,0.225
			c-0.163,0.052-0.363,0.08-0.595,0.08h-1.009v-2.031h0.83c0.449,0,0.808,0.077,1.064,0.225c0.244,0.136,0.366,0.374,0.386,0.708
			C-466.277,565.732-466.304,565.882-466.351,566.02z"/>
		<path d="M-460.558,563.921h-0.75l-2.422,5.646h0.826l0.785-1.816h2.357l0.796,1.816h0.83L-460.558,563.921z M-461.817,567.025
			l0.884-2.07l0.879,2.07H-461.817z"/>
		<polygon points="-451.48,563.921 -451.48,568.156 -454.337,563.921 -455.242,563.921 -455.242,569.566 -454.475,569.566 
			-454.475,565.064 -451.461,569.515 -451.427,569.566 -450.711,569.566 -450.711,563.921 		"/>
		<rect x="-507.649" y="543.213" width="1.565" height="16.273"/>
		<polygon points="-450.345,543.213 -450.345,544.655 -450.345,551.996 -450.345,553.437 -450.345,559.486 -448.783,559.486 
			-448.783,553.437 -444.313,553.437 -444.313,551.996 -448.783,551.996 -448.783,544.655 -442.858,544.655 -442.858,543.213 
			-448.783,543.213 		"/>
		<polygon points="-432.448,543.213 -432.448,544.655 -432.448,551.996 -432.448,553.437 -432.448,559.486 -430.887,559.486 
			-430.887,553.437 -426.417,553.437 -426.417,551.996 -430.887,551.996 -430.887,544.655 -424.961,544.655 -424.961,543.213 
			-430.887,543.213 		"/>
		<polygon points="-406.201,544.655 -406.201,543.213 -412.127,543.213 -413.685,543.213 -413.685,544.655 -413.685,551.996 
			-413.685,553.437 -413.685,558.048 -413.685,559.486 -413.685,559.488 -406.201,559.488 -406.201,558.048 -412.127,558.048 
			-412.127,553.437 -407.655,553.437 -407.655,551.996 -412.127,551.996 -412.127,544.655 		"/>
		<path d="M-524.147,551.829v1.536h4.326c-0.884,2.777-3.508,4.707-6.424,4.707c-3.727,0-6.75-3.028-6.75-6.75
			c0-3.721,3.023-6.75,6.75-6.75c2.818,0,5.362,1.782,6.332,4.434l0.021,0.057h1.525l-0.033-0.11
			c-1.053-3.485-4.207-5.826-7.846-5.826c-4.521,0-8.196,3.678-8.196,8.196c0,4.52,3.675,8.195,8.196,8.195
			c4.267,0,7.855-3.336,8.162-7.593l0.01-0.096H-524.147z"/>
		<polygon points="-467.143,544.95 -467.141,544.946 -467.145,544.942 -467.975,542.794 -468.812,544.942 -468.815,544.946 
			-468.812,544.95 -474.798,559.486 -473.125,559.486 -467.975,547.126 -462.828,559.486 -461.157,559.486 		"/>
		<path d="M-495.042,559.486V543.22h4.37c1.339,0,2.451,0.161,3.336,0.479c0.884,0.319,1.556,0.726,2.018,1.225
			c0.462,0.498,0.783,1.021,0.961,1.568c0.181,0.547,0.297,1.147,0.357,1.8c0,0.905-0.209,1.753-0.618,2.539
			c-0.412,0.785-0.986,1.41-1.723,1.876c-0.736,0.463-1.563,0.695-2.478,0.695l4.592,6.084h-2.041l-5.534-7.381h1.362
			c0.958,0,1.805-0.145,2.538-0.43c0.732-0.284,1.294-0.698,1.684-1.243c0.391-0.541,0.585-1.199,0.585-1.97
			c0-0.787-0.215-1.46-0.643-2.024c-0.43-0.565-0.992-0.989-1.686-1.277c-0.692-0.284-1.419-0.428-2.177-0.428h-3.272v14.753
			H-495.042z"/>
		<rect x="-446.601" y="566.089" width="40.399" height="0.991"/>
		<rect x="-534.442" y="566.089" width="46.056" height="0.991"/>
	</g>
	<g>
		<polygon fill="#B28247" points="-490.772,465.499 -490.772,447.007 -506.822,456.205 		"/>
		<polygon fill="#B28247" points="-508.823,496.754 -508.794,478.168 -524.844,487.462 		"/>
		<polygon fill="#B28247" points="-508.823,517.589 -508.794,499.006 -524.844,508.298 		"/>
		<polygon fill="#B28247" points="-490.832,528.009 -490.772,509.426 -506.822,518.717 		"/>
		<polygon fill="#6A3906" points="-507.511,499.006 -507.478,517.589 -491.429,508.298 		"/>
		<polygon fill="#6A3906" points="-473.313,497.88 -489.458,488.588 -489.458,507.174 		"/>
		<polygon fill="#6A3906" points="-473.403,456.205 -489.522,447.007 -489.458,465.499 		"/>
		<polygon fill="#6A3906" points="-507.478,457.425 -507.478,475.916 -491.429,466.623 		"/>
		<polygon fill="#6A3906" points="-525.5,467.751 -525.5,486.334 -509.45,477.042 		"/>
		<polygon fill="#6A3906" points="-525.5,488.588 -525.5,507.174 -509.45,497.88 		"/>
		<polygon fill="#B28247" points="-508.794,475.916 -508.794,457.425 -524.844,466.623 		"/>
		<polygon fill="#6A3906" points="-489.458,528.009 -473.403,518.717 -489.522,509.426 		"/>
		<polygon fill="#B28247" points="-472.749,496.754 -472.749,478.168 -488.807,487.462 		"/>
		<polygon fill="#B28247" points="-472.749,517.589 -472.749,499.006 -488.895,508.298 		"/>
		<polygon fill="#6A3906" points="-433.165,475.916 -433.165,457.425 -449.215,466.623 		"/>
		<polygon fill="#6A3906" points="-451.185,488.588 -467.332,497.88 -451.185,507.174 		"/>
		<polygon fill="#B28247" points="-431.852,457.425 -431.852,475.916 -415.8,466.623 		"/>
		<polygon fill="#B28247" points="-449.871,447.007 -449.871,465.499 -433.821,456.205 		"/>
		<polygon fill="#6A3906" points="-415.144,486.334 -415.144,467.751 -431.193,477.042 		"/>
		<polygon fill="#B28247" points="-415.8,487.462 -431.852,478.168 -431.822,496.754 		"/>
		<polygon fill="#B28247" points="-467.893,478.168 -467.893,496.754 -451.839,487.462 		"/>
		<polygon fill="#6A3906" points="-451.185,528.009 -451.122,509.426 -467.24,518.717 		"/>
		<polygon fill="#6A3906" points="-451.185,465.499 -451.122,447.007 -467.24,456.205 		"/>
		<polygon fill="#B28247" points="-467.893,499.006 -467.893,517.589 -451.749,508.298 		"/>
		<polygon fill="#B28247" points="-449.812,528.009 -433.821,518.717 -449.871,509.426 		"/>
		<polygon fill="#B28247" points="-431.822,517.589 -415.8,508.298 -431.852,499.006 		"/>
		<polygon fill="#6A3906" points="-415.144,507.174 -415.144,488.588 -431.193,497.88 		"/>
		<polygon fill="#6A3906" points="-433.165,517.589 -433.131,499.006 -449.215,508.298 		"/>
	</g>
</g>
</svg>
