<?xml version="1.0" encoding="utf-8"?>
<!-- Generator: Adobe Illustrator 16.0.0, SVG Export Plug-In . SVG Version: 6.00 Build 0)  -->
<!DOCTYPE svg PUBLIC "-//W3C//DTD SVG 1.1//EN" "http://www.w3.org/Graphics/SVG/1.1/DTD/svg11.dtd">
<svg version="1.1" id="レイヤー_1" xmlns="http://www.w3.org/2000/svg" xmlns:xlink="http://www.w3.org/1999/xlink" x="0px"
	 y="0px" width="800px" height="466.477px" viewBox="0 0 800 466.477" enable-background="new 0 0 800 466.477"
	 xml:space="preserve">
<g>
	<g>
		<path fill="#FFFFFF" d="M332.87,419.74h4.619v24.268c0,2.186-0.402,4.068-1.232,5.619c-0.853,1.576-1.99,2.742-3.403,3.506
			c-1.381,0.748-2.896,1.127-4.533,1.127c-1.579,0-3.096-0.363-4.563-1.086c-1.47-0.725-2.654-1.785-3.57-3.145
			c-0.917-1.375-1.384-2.967-1.384-4.736v-0.676h4.439l0.08,0.596c0.063,0.684,0.252,1.326,0.553,1.898
			c0.299,0.57,0.678,1.061,1.144,1.463c0.483,0.402,1.003,0.707,1.532,0.9c0.539,0.209,1.105,0.322,1.698,0.346
			c0.774-0.023,1.54-0.232,2.274-0.627c0.695-0.402,1.272-0.965,1.698-1.746c0.435-0.771,0.648-1.76,0.648-2.926V419.74z"/>
		<path fill="#FFFFFF" d="M373.997,419.74h-4.511l-14.583,33.988h4.982l4.732-10.943h14.181l4.796,10.943h4.998L373.997,419.74z
			 M366.414,438.436l5.324-12.473l5.274,12.473H366.414z"/>
		<path fill="#FFFFFF" d="M428.953,429.617c-0.148-2.447-0.853-4.434-2.066-5.926c-1.219-1.475-2.826-2.529-4.849-3.111
			c-1.922-0.559-4.218-0.84-6.823-0.84h-9.211v33.988h4.611v-13.162h6.438c2.235,0,4.281-0.412,6.083-1.24
			c1.837-0.844,3.284-2.041,4.294-3.57c1.053-1.535,1.571-3.295,1.571-5.234C429.001,430.107,428.985,429.781,428.953,429.617z
			 M423.899,432.363c-0.273,0.797-0.708,1.492-1.295,2.066c-0.6,0.568-1.391,1.029-2.336,1.352c-0.98,0.313-2.179,0.486-3.586,0.486
			h-6.067v-12.227h5.002c2.701,0,4.865,0.459,6.404,1.352c1.468,0.82,2.22,2.238,2.319,4.266
			C424.341,430.643,424.185,431.551,423.899,432.363z"/>
		<path fill="#FFFFFF" d="M458.78,419.74h-4.515l-14.578,33.988h4.974l4.717-10.943h14.191l4.8,10.943h4.998L458.78,419.74z
			 M451.194,438.436l5.323-12.473l5.283,12.473H451.194z"/>
		<polygon fill="#FFFFFF" points="513.423,419.74 513.423,445.229 496.231,419.74 490.779,419.74 490.779,453.729 495.392,453.729 
			495.392,426.615 513.539,453.414 513.745,453.729 518.059,453.729 518.059,419.74 		"/>
		<rect x="175.289" y="295.072" fill="#FFFFFF" width="9.422" height="97.963"/>
		<polygon fill="#FFFFFF" points="520.262,295.072 520.262,303.748 520.262,347.949 520.262,356.617 520.262,393.035 
			529.658,393.035 529.658,356.617 556.563,356.617 556.563,347.949 529.658,347.949 529.658,303.748 565.332,303.748 
			565.332,295.072 529.658,295.072 		"/>
		<polygon fill="#FFFFFF" points="628.003,295.072 628.003,303.748 628.003,347.949 628.003,356.617 628.003,393.035 
			637.398,393.035 637.398,356.617 664.3,356.617 664.3,347.949 637.398,347.949 637.398,303.748 673.072,303.748 673.072,295.072 
			637.398,295.072 		"/>
		<polygon fill="#FFFFFF" points="786.016,303.748 786.016,295.072 750.338,295.072 740.954,295.072 740.954,303.748 
			740.954,347.949 740.954,356.617 740.954,384.379 740.954,393.035 740.954,393.051 786.016,393.051 786.016,384.379 
			750.338,384.379 750.338,356.617 777.251,356.617 777.251,347.949 750.338,347.949 750.338,303.748 		"/>
		<path fill="#FFFFFF" d="M75.959,346.945v9.246h26.045c-5.323,16.717-21.116,28.336-38.671,28.336
			c-22.437,0-40.64-18.236-40.64-40.639s18.203-40.631,40.64-40.631c16.954,0,32.274,10.734,38.109,26.695l0.127,0.34h9.185
			l-0.197-0.678c-6.334-20.979-25.319-35.066-47.224-35.066c-27.215,0-49.35,22.137-49.35,49.34c0,27.211,22.135,49.34,49.35,49.34
			c25.68,0,47.287-20.082,49.136-45.709l0.054-0.574H75.959z"/>
		<polygon fill="#FFFFFF" points="419.139,305.525 419.155,305.51 419.122,305.494 414.126,292.549 409.084,305.494 409.068,305.51 
			409.084,305.525 373.048,393.035 383.119,393.035 414.126,318.637 445.104,393.035 455.174,393.035 		"/>
		<path fill="#FFFFFF" d="M251.174,393.035v-97.914h26.314c8.063,0,14.751,0.965,20.074,2.879c5.314,1.922,9.365,4.373,12.154,7.373
			c2.78,2.998,4.706,6.145,5.779,9.439c1.083,3.297,1.792,6.904,2.14,10.828c0,5.463-1.24,10.561-3.711,15.293
			c-2.489,4.732-5.94,8.488-10.369,11.285c-4.438,2.799-9.414,4.197-14.917,4.197l27.639,36.619h-12.272l-33.326-44.434h8.206
			c5.765,0,10.859-0.861,15.273-2.582c4.415-1.721,7.786-4.209,10.14-7.477c2.346-3.266,3.522-7.223,3.522-11.869
			c0-4.729-1.295-8.793-3.877-12.191c-2.59-3.396-5.971-5.949-10.148-7.67c-4.169-1.721-8.538-2.586-13.109-2.586h-19.697v88.809
			H251.174z"/>
		<rect x="542.801" y="432.785" fill="#FFFFFF" width="243.215" height="5.971"/>
		<rect x="13.984" y="432.785" fill="#FFFFFF" width="277.268" height="5.971"/>
	</g>
	<g>
		<g>
			<path fill="#FFFFFF" d="M269.101,68.517l42.18,24.422l-42.18,24.42V68.517z M269.101,123.278l42.18,24.424l-42.18,24.416V123.278
				z M313.009,89.98L270.83,65.56l42.179-24.173V89.98z M270.83,120.318l42.179-24.42l-0.079,48.84L270.83,120.318z
				 M313.009,150.657l-0.079,48.84l-42.1-24.416L313.009,150.657z M316.46,199.498l-0.088-48.84l42.267,24.424L316.46,199.498z
				 M358.639,65.56L316.46,89.98V41.387L358.639,65.56z M318.188,38.176l42.18-24.173v48.595L318.188,38.176z M360.368,178.037
				l-0.157,48.84l-42.022-24.416L360.368,178.037z M363.818,62.599l-0.166-48.595l42.36,24.173L363.818,62.599z M363.818,226.877
				l-0.166-48.84l42.36,24.425L363.818,226.877z M363.818,172.118v-48.84l42.431,24.424L363.818,172.118z M407.729,150.657v48.84
				l-42.425-24.416L407.729,150.657z M365.53,120.318l42.2-24.42v48.84L365.53,120.318z"/>
		</g>
		<g>
			<path fill="#FFFFFF" d="M559.124,117.359l-42.179-24.42l42.179-24.422V117.359z M559.124,172.118l-42.179-24.416l42.179-24.424
				V172.118z M515.217,41.387l42.179,24.173l-42.179,24.42V41.387z M515.292,144.739l-0.075-48.84l42.179,24.42L515.292,144.739z
				 M557.396,175.082l-42.104,24.416l-0.075-48.84L557.396,175.082z M469.584,175.082l42.268-24.424l-0.089,48.84L469.584,175.082z
				 M511.763,41.387V89.98l-42.179-24.42L511.763,41.387z M467.855,62.599V14.003l42.179,24.173L467.855,62.599z M510.034,202.461
				l-42.021,24.416l-0.157-48.84L510.034,202.461z M422.211,38.176l42.359-24.173l-0.165,48.595L422.211,38.176z M422.211,202.461
				l42.359-24.425l-0.165,48.84L422.211,202.461z M421.974,147.702l42.432-24.424v48.84L421.974,147.702z M462.922,175.082
				l-42.425,24.416v-48.84L462.922,175.082z M420.497,144.739v-48.84l42.188,24.42L420.497,144.739z"/>
		</g>
	</g>
</g>
</svg>
